<svg xmlns="http://www.w3.org/2000/svg" xmlns:bx="https://boxy-svg.com" width="131" height="120"><defs><filter id="a" x="-500%" y="-500%" width="1000%" height="1000%" bx:preset="inner-shadow 1 0 0 20 0.5 rgba(255,159,26,1)"><feOffset/><feGaussianBlur stdDeviation="20"/><feComposite operator="out" in="SourceGraphic"/><feComponentTransfer result="choke"><feFuncA type="linear"/></feComponentTransfer><feFlood flood-color="rgba(255,159,26,1)" result="color"/><feComposite operator="in" in="color" in2="choke" result="shadow"/><feComposite in="shadow" in2="SourceGraphic"/></filter></defs><path d="M103.759 29.08c2.112-10.752.931-18.913-4.063-22.156-1.664-1.081-3.66-1.554-5.906-1.469-12.129.46-31.698 17.16-47.688 41.782-18.95 29.18-25.684 58.425-15.03 65.343 5.056 3.284 13.114.956 22.218-5.531" style="fill:none;stroke:#66595c;stroke-width:5;stroke-linecap:round;filter:url(#a)"/><path d="M113.478 76.799c8.994-3.49 14.525-8.265 14.812-13.75.665-12.685-26.941-24.429-61.688-26.25-3.257-.17-6.46-.26-9.593-.25-30.287.102-53.929 8.41-54.532 19.906-.286 5.474 4.701 10.783 13.251 15.188" style="fill:none;stroke:#66595c;stroke-width:5;stroke-linecap:round;filter:url(#a)"/><path d="M56.79 10.174c-6.154-5.106-11.925-7.848-16.563-7.5-1.234.093-2.376.397-3.437.938-11.318 5.766-7.702 35.592 8.094 66.593 15.796 31.002 37.775 51.455 49.093 45.688 10.885-5.546 7.947-33.338-6.343-63.031" style="fill:none;stroke:#66595c;stroke-width:5;stroke-linecap:round;filter:url(#a)"/><path d="M73.29 60.643c0 5.773-6.25 9.382-11.25 6.495a7.5 7.5 0 0 1-3.75-6.495c0-5.774 6.25-9.382 11.25-6.495a7.5 7.5 0 0 1 3.75 6.495Z" style="fill:#66595c;filter:url(#a)"/></svg>